<svg height="31" viewBox="0 0 32 31" width="32" xmlns="http://www.w3.org/2000/svg"><path d="m29 795.682-12 14.318-12-14.377c-1.435-1.994-2-3.341-2-5.185 0-3.439 2.455-6.534 6-6.563 2.916-.024 6.222 2.954 8 5.199 1.731-2.166 5.084-5.199 8-5.199 3.451 0 6 3.124 6 6.563 0 1.844-.447 3.291-2 5.244zm-4-13.682c-3.333 0-5.855 1.956-8 4-2.043-2.169-4.667-4-8-4-4.694 0-8 4.036-8 8.438 0 2.361.967 4.061 2.026 5.659l12.433 14.906c1.395 1.477 1.659 1.477 3.054 0l12.461-14.906c1.246-1.598 2.026-3.298 2.026-5.659 0-4.402-3.306-8.438-8-8.438z" fill="#131314" fill-rule="evenodd" transform="translate(-1 -782)"/></svg>